<?xml version="1.0" standalone="no"?>
<!DOCTYPE svg PUBLIC "-//W3C//DTD SVG 20010904//EN"
 "http://www.w3.org/TR/2001/REC-SVG-20010904/DTD/svg10.dtd">
<svg version="1.0" xmlns="http://www.w3.org/2000/svg"
 width="656.000000pt" height="656.000000pt" viewBox="0 0 656.000000 656.000000"
 preserveAspectRatio="xMidYMid meet">
<metadata>
Created by potrace 1.14, written by Peter Selinger 2001-2017
</metadata>
<g transform="translate(0.000000,656.000000) scale(0.100000,-0.100000)"
fill="#000000" stroke="none">
<path d="M3253 6508 c-43 -23 -79 -45 -81 -50 -2 -4 -8 -8 -14 -8 -6 0 -51
-23 -102 -52 -90 -50 -111 -62 -231 -128 -33 -18 -76 -42 -95 -53 -19 -11 -75
-42 -125 -70 -49 -27 -110 -61 -135 -75 -25 -14 -70 -39 -100 -55 -30 -16 -67
-38 -81 -48 -14 -10 -28 -16 -31 -13 -3 2 -11 -2 -18 -11 -7 -8 -16 -15 -20
-15 -5 0 -41 -19 -82 -42 -40 -23 -95 -54 -123 -70 -27 -15 -70 -38 -95 -50
-25 -13 -47 -26 -50 -30 -3 -4 -17 -12 -30 -17 -14 -6 -32 -15 -40 -21 -16
-11 -196 -110 -325 -180 -44 -24 -91 -51 -105 -60 -14 -9 -38 -23 -55 -32 -33
-16 -107 -57 -230 -127 -44 -25 -99 -55 -122 -66 -24 -11 -43 -23 -43 -26 0
-4 -11 -10 -24 -13 -14 -3 -31 -12 -38 -19 -7 -6 -51 -32 -98 -56 -111 -57
-119 -65 -89 -84 82 -50 217 -132 234 -141 20 -11 203 -120 273 -164 20 -12
46 -27 57 -32 11 -5 60 -35 108 -65 48 -30 92 -55 96 -55 5 0 14 -7 21 -15 13
-16 7 -19 237 111 62 35 117 64 123 64 5 0 10 5 10 10 0 6 4 10 9 10 5 0 83
41 173 91 159 89 227 126 318 176 25 14 106 59 180 101 74 42 138 76 143 74 4
-1 7 1 7 6 0 4 15 13 33 21 17 8 34 17 37 20 3 3 21 14 40 25 57 30 121 65
185 102 33 19 80 44 105 56 25 12 47 25 50 28 3 4 44 28 92 53 l87 48 43 -28
c24 -15 45 -28 48 -28 3 0 23 -12 45 -26 34 -22 294 -178 383 -230 15 -9 103
-62 195 -118 93 -55 173 -101 178 -101 5 0 9 -4 9 -9 0 -5 6 -11 13 -13 7 -2
117 -66 245 -143 128 -77 248 -149 267 -160 123 -72 190 -112 264 -157 64 -38
88 -48 100 -41 9 6 48 27 86 48 39 21 84 46 100 55 42 24 118 67 195 108 36
19 76 42 90 51 14 9 50 30 80 46 30 16 93 50 139 77 46 26 87 48 91 48 4 0 13
7 20 15 7 8 16 13 20 10 8 -5 36 23 29 29 -2 2 -17 11 -34 20 -16 9 -48 28
-70 41 -22 14 -47 28 -55 32 -8 4 -19 11 -25 15 -5 5 -116 72 -245 148 -129
77 -242 144 -250 150 -8 5 -40 24 -70 42 -30 17 -57 35 -60 38 -3 4 -12 9 -20
12 -8 3 -87 49 -174 102 -88 53 -163 96 -168 96 -4 0 -8 5 -8 10 0 6 -4 10
-10 10 -8 0 -102 54 -200 115 -98 62 -242 145 -250 145 -6 0 -10 5 -10 10 0 6
-5 10 -10 10 -6 0 -16 5 -23 10 -7 6 -66 42 -132 82 -66 39 -133 79 -150 89
-16 11 -41 25 -55 32 -22 11 -67 38 -140 85 -14 9 -27 17 -30 17 -3 0 -16 8
-30 17 -75 48 -212 128 -221 128 -5 0 -9 5 -9 10 0 6 -5 10 -11 10 -6 0 -23 8
-37 19 -15 10 -44 28 -64 39 l-37 21 -78 -41z"/>
<path d="M417 4612 c-2 -4 -3 -694 -3 -1534 1 -1516 1 -1528 21 -1541 11 -8
43 -27 70 -42 28 -15 149 -85 270 -155 121 -70 236 -137 255 -148 19 -10 107
-61 195 -112 216 -125 224 -129 275 -158 25 -14 61 -35 80 -47 19 -12 42 -25
50 -28 8 -4 29 -16 45 -26 17 -10 150 -87 295 -171 146 -84 360 -208 475 -275
116 -67 255 -147 310 -179 55 -31 107 -61 115 -66 41 -26 172 -100 176 -100 2
0 4 225 4 500 l0 500 -37 23 c-21 13 -100 59 -176 103 -76 43 -150 86 -165 95
-15 9 -47 27 -72 41 -63 35 -152 87 -170 98 -13 8 -87 50 -175 100 -16 10
-127 74 -245 142 -118 69 -228 133 -245 142 -16 9 -52 30 -80 46 -27 16 -72
42 -99 57 -27 16 -56 33 -65 38 -9 6 -72 42 -139 80 l-122 70 0 430 c0 237 -1
704 0 1038 0 567 -1 608 -18 615 -9 4 -57 31 -105 60 -48 28 -90 52 -94 52 -4
0 -14 6 -22 14 -9 8 -40 27 -69 42 -29 16 -61 34 -70 39 -9 6 -75 43 -147 84
-71 41 -132 77 -135 80 -3 3 -23 15 -45 27 -22 11 -61 33 -87 47 -26 15 -49
24 -51 19z"/>
<path d="M6156 4613 c-4 -5 -32 -21 -61 -38 -30 -16 -116 -66 -191 -110 -76
-44 -168 -97 -204 -118 -36 -21 -73 -41 -82 -44 -10 -3 -18 -9 -18 -14 0 -5
-6 -9 -12 -9 -7 -1 -67 -33 -133 -73 l-120 -72 0 -1032 c0 -675 -3 -1035 -10
-1042 -5 -5 -30 -21 -55 -34 -25 -14 -111 -63 -191 -109 -80 -46 -152 -88
-160 -91 -8 -4 -27 -16 -44 -27 -16 -11 -39 -24 -50 -30 -11 -5 -42 -23 -70
-39 -27 -16 -61 -36 -75 -44 -21 -11 -224 -128 -420 -242 -30 -18 -147 -85
-260 -150 -113 -65 -218 -126 -235 -136 -16 -10 -72 -41 -122 -70 -51 -29 -94
-55 -94 -58 -2 -11 -4 -1001 -2 -1001 2 0 328 187 421 241 15 9 48 27 74 42
25 14 64 37 87 51 22 14 43 26 47 26 3 0 25 12 48 27 22 16 59 37 81 48 22 11
42 22 45 25 3 3 66 41 140 83 74 43 142 82 150 87 73 43 96 55 100 55 3 0 23
12 45 26 22 14 67 41 100 60 33 19 69 39 80 46 11 6 36 20 55 31 19 10 51 27
70 38 19 10 37 21 40 24 5 5 233 138 340 198 60 33 331 191 450 260 52 31 97
57 100 57 3 0 23 12 45 26 22 13 57 33 78 44 l37 20 0 1537 c0 846 -4 1538 -8
1538 -5 0 -12 -3 -16 -7z"/>
<path d="M2397 4211 c16 -14 47 -40 69 -58 21 -17 50 -40 64 -52 14 -11 30
-24 35 -29 6 -4 48 -39 95 -77 47 -39 94 -77 105 -86 11 -10 41 -34 66 -55 50
-42 96 -81 204 -169 39 -31 72 -61 73 -66 2 -5 8 -9 13 -9 5 0 18 -8 28 -17
19 -18 29 -27 112 -94 24 -21 103 -85 174 -144 72 -59 142 -118 157 -131 l28
-24 17 28 c10 15 20 29 24 32 3 3 14 21 25 40 10 19 21 37 24 40 3 3 38 57 78
120 40 63 76 122 82 130 43 65 100 154 100 157 0 3 10 19 23 36 12 17 27 39
32 49 24 41 200 316 220 343 47 65 128 60 -923 61 l-955 0 30 -25z"/>
<path d="M2943 3329 c-16 -23 -32 -49 -38 -58 -5 -9 -22 -35 -37 -58 -16 -23
-28 -46 -28 -51 0 -6 -4 -12 -8 -14 -4 -1 -52 -73 -106 -158 -135 -214 -181
-286 -251 -393 -33 -51 -66 -105 -74 -120 -8 -15 -22 -36 -33 -46 -10 -11 -18
-24 -18 -29 0 -5 -7 -15 -15 -22 -8 -7 -15 -19 -15 -26 0 -11 35 -13 198 -9
108 3 280 8 382 11 165 4 228 5 402 4 26 0 50 0 55 1 4 1 10 1 13 0 3 -2 79
-4 170 -6 91 -2 281 -6 423 -9 141 -4 257 -4 257 -2 0 2 -46 41 -102 87 -57
46 -105 86 -108 89 -3 3 -30 25 -60 50 -30 25 -57 47 -60 50 -3 3 -41 35 -85
70 -80 65 -118 96 -139 115 -6 6 -34 28 -61 50 -28 21 -52 42 -55 45 -3 3 -39
33 -80 65 -41 33 -82 67 -90 75 -8 8 -46 41 -85 72 -127 102 -260 212 -285
235 -14 13 -28 23 -32 23 -4 0 -20 -19 -35 -41z"/>
</g>
</svg>
